<?xml version="1.0" encoding="UTF-8" standalone="no"?>
<svg
   width="1em"
   height="1em"
   viewBox="0 0 24 24"
   version="1.1"
   id="svg1"
   sodipodi:docname="bedx.svg"
   inkscape:version="1.3 (0e150ed6c4, 2023-07-21)"
   xmlns:inkscape="http://www.inkscape.org/namespaces/inkscape"
   xmlns:sodipodi="http://sodipodi.sourceforge.net/DTD/sodipodi-0.dtd"
   xmlns="http://www.w3.org/2000/svg"
   xmlns:svg="http://www.w3.org/2000/svg">
  <defs
     id="defs1" />
  <sodipodi:namedview
     id="namedview1"
     pagecolor="#ffffff"
     bordercolor="#000000"
     borderopacity="0.25"
     inkscape:showpageshadow="2"
     inkscape:pageopacity="0.0"
     inkscape:pagecheckerboard="0"
     inkscape:deskcolor="#d1d1d1"
     inkscape:zoom="256"
     inkscape:cx="-0.50195312"
     inkscape:cy="-0.50195312"
     inkscape:window-width="2160"
     inkscape:window-height="1346"
     inkscape:window-x="-11"
     inkscape:window-y="-11"
     inkscape:window-maximized="1"
     inkscape:current-layer="svg1" />
  <path
     fill="currentColor"
     d="M20 9.557V3h-2v2H6V3H4v6.557C2.81 10.25 2 11.525 2 13v4a1 1 0 0 0 1 1h1v4h2v-4h12v4h2v-4h1a1 1 0 0 0 1-1v-4c0-1.475-.811-2.75-2-3.443zM18 7v2h-5V7h5zM6 7h5v2H6V7zm14 9H4v-3c0-1.103.897-2 2-2h12c1.103 0 2 .897 2 2v3z"
     id="path1"
     style="fill:#b7cf56;fill-opacity:1" />
</svg>
